<svg width="100%" height="100%" viewBox="0 0 19 13" fill="none" xmlns="http://www.w3.org/2000/svg">
  <path fill-rule="evenodd" clip-rule="evenodd" d="M4.85156 3.01562H14.8516V9.02256H4.85156V3.01562ZM17.3516 6.02256C17.3516 6.85196 18.0231 7.5243 18.8516 7.5243V10.5278C18.8516 11.3572 18.18 12.0295 17.3516 12.0295H2.35156C1.52312 12.0295 0.851562 11.3572 0.851562 10.5278V7.5243C1.68 7.5243 2.35156 6.85196 2.35156 6.02256C2.35156 5.19316 1.68 4.52083 0.851562 4.52083V1.51736C0.851562 0.687961 1.52312 0.015625 2.35156 0.015625H17.3516C18.18 0.015625 18.8516 0.687961 18.8516 1.51736V4.52083C18.0231 4.52083 17.3516 5.19316 17.3516 6.02256ZM15.8516 2.76649C15.8516 2.35179 15.5158 2.01562 15.1016 2.01562H4.60156C4.18734 2.01562 3.85156 2.35179 3.85156 2.76649V9.27401C3.85156 9.68871 4.18734 10.0249 4.60156 10.0249H15.1016C15.5158 10.0249 15.8516 9.68871 15.8516 9.27401V2.76649Z" fill="#A5A4BF"/>
</svg>
