<svg width="100%" height="100%" viewBox="0 0 17 15" fill="none" xmlns="http://www.w3.org/2000/svg">
  <path fill-rule="evenodd" clip-rule="evenodd" d="M15.5573 8.63281H13.3351V11.3026L12.4462 10.7102L11.5573 11.3026V8.63281H9.33506C9.09062 8.63281 8.89062 8.83304 8.89062 9.07777V14.4173C8.89062 14.662 9.09062 14.8622 9.33506 14.8622H15.5573C15.8017 14.8622 16.0017 14.662 16.0017 14.4173V9.07777C16.0017 8.83304 15.8017 8.63281 15.5573 8.63281ZM4.88975 6.8544H11.112C11.3564 6.8544 11.5564 6.65417 11.5564 6.40945V1.06995C11.5564 0.825231 11.3564 0.625 11.112 0.625H8.88975V3.29475L8.00086 2.7024L7.11197 3.29475V0.625H4.88975C4.64531 0.625 4.44531 0.825231 4.44531 1.06995V6.40945C4.44531 6.65417 4.64531 6.8544 4.88975 6.8544ZM6.66666 8.63281H4.44444V11.3026L3.55555 10.7102L2.66666 11.3026V8.63281H0.44444C0.2 8.63281 0 8.83304 0 9.07777V14.4173C0 14.662 0.2 14.8622 0.44444 14.8622H6.66666C6.9111 14.8622 7.1111 14.662 7.1111 14.4173V9.07777C7.1111 8.83304 6.9111 8.63281 6.66666 8.63281Z" fill="#A5A4BF"/>
</svg>
