<svg width="100%" height="100%" viewBox="0 0 16 17" fill="none" xmlns="http://www.w3.org/2000/svg">
  <path fill-rule="evenodd" clip-rule="evenodd"
    d="M13.3 5.86226L14.4 3.75983L13 2.35822L10.9 3.45949C10.6 3.25926 10.2 3.15914 9.8 3.05902L9 0.65625H7L6.2 2.95891C5.9 3.05902 5.5 3.15914 5.2 3.35937L3.1 2.2581L1.6 3.75983L2.7 5.86226C2.5 6.16261 2.4 6.56307 2.3 6.86342L0 7.66434V9.66665L2.3 10.4676C2.4 10.868 2.6 11.1684 2.7 11.5689L1.6 13.6713L3 15.0729L5.1 13.9716C5.4 14.1719 5.8 14.272 6.2 14.3721L7 16.6747H9L9.8 14.3721C10.2 14.272 10.5 14.0717 10.9 13.9716L13 15.0729L14.4 13.6713L13.3 11.5689C13.5 11.2685 13.6 10.868 13.7 10.4676L16 9.66665V7.66434L13.7 6.86342C13.6 6.56307 13.5 6.16261 13.3 5.86226ZM8 11.671C6.3 11.671 5 10.3695 5 8.66753C5 6.96557 6.3 5.66406 8 5.66406C9.7 5.66406 11 6.96557 11 8.66753C11 10.3695 9.7 11.671 8 11.671Z"
    fill="#A5A4BF" />
</svg>