<?xml version="1.0" standalone="no"?>
<!DOCTYPE svg PUBLIC "-//W3C//DTD SVG 20010904//EN" "http://www.w3.org/TR/2001/REC-SVG-20010904/DTD/svg10.dtd">
<svg version="1.0" xmlns="http://www.w3.org/2000/svg" width="100%" height="100%" viewBox="0 0 64.000000 64.000000"
  preserveAspectRatio="xMidYMid meet">

  <g transform="translate(0.000000,64.000000) scale(0.100000,-0.100000)" fill="#4d4f5c" stroke="none">
    <path d="M205 556 c-36 -16 -82 -67 -91 -101 -11 -43 -1 -70 25 -70 20 0 26 7
33 35 20 81 112 109 162 49 19 -23 26 -42 26 -74 l0 -44 -52 -3 c-49 -3 -53
-5 -53 -28 0 -23 4 -25 53 -28 28 -2 52 -7 52 -12 0 -5 -24 -10 -52 -12 -49
-3 -53 -5 -53 -28 0 -23 4 -25 52 -28 l52 -3 3 -61 c5 -111 68 -103 68 8 l0
53 48 3 c43 3 47 5 47 28 0 23 -4 25 -47 28 -27 2 -48 7 -48 12 0 5 21 10 48
12 43 3 47 5 47 28 0 23 -4 25 -46 28 l-46 3 -6 55 c-7 71 -39 121 -91 145
-48 22 -89 23 -131 5z" />
  </g>
</svg>