<svg width="100%" height="100%" viewBox="0 0 24 24" fill="none" xmlns="http://www.w3.org/2000/svg">
  <path
    d="M19 2V9.09924C19 10.9565 18.2619 12.7376 16.9482 14.0505L14.9975 16V9.41316C14.9975 8.5224 13.9207 8.07617 13.2906 8.70584L11.9957 10C11.4954 10.5 10.2946 10.8 9.49413 10C8.69364 9.2 8.99382 8 9.49413 7.5L14.9975 2"
    stroke="#1abc9c" stroke-opacity="0.8" stroke-linecap="round" stroke-linejoin="round" />
  <path
    d="M10 21C12.7614 21 15 18.7614 15 16C15 13.2386 12.7614 11 10 11C7.23858 11 5 13.2386 5 16C5 18.7614 7.23858 21 10 21Z"
    stroke="#1abc9c" stroke-opacity="0.8" stroke-linecap="round" stroke-linejoin="round" />
  <path d="M7 16H8M9 16H8M8 16V15M8 16V17" stroke="#1abc9c" stroke-opacity="0.8" stroke-width="0.5"
    stroke-linecap="round" stroke-linejoin="round" />
</svg>