<svg width="100%" height="100%" viewBox="0 0 16 17" fill="none" xmlns="http://www.w3.org/2000/svg">
  <path fill-rule="evenodd" clip-rule="evenodd"
    d="M7.99999 13.3041C11.5906 13.3041 14.5 10.3914 14.5 6.79658C14.5 3.2018 11.5906 0.289062 7.99999 0.289062C4.40936 0.289062 1.49999 3.20181 1.49999 6.79658C1.49999 10.3914 4.40937 13.3041 7.99999 13.3041ZM7.30784 3.33402V2.80841C7.30784 2.52058 7.53909 2.28906 7.82659 2.28906H8.17346C8.46096 2.28906 8.69221 2.52058 8.69221 2.80841V3.34028C9.17659 3.36531 9.64534 3.53112 10.036 3.82208C10.211 3.95036 10.2297 4.2069 10.0735 4.35708L9.56409 4.84202C9.44534 4.95777 9.26722 4.96091 9.12659 4.87331C8.95784 4.76693 8.77034 4.71374 8.57034 4.71374H7.35471C7.07346 4.71374 6.84533 4.97029 6.84533 5.28628C6.84533 5.54283 7.00158 5.77122 7.22345 5.83692L9.17033 6.42198C9.97346 6.66287 10.536 7.43565 10.536 8.30228C10.536 9.366 9.71096 10.2264 8.68908 10.2545V10.7801C8.68908 11.068 8.45783 11.2995 8.17033 11.2995H7.82345C7.53595 11.2995 7.3047 11.068 7.3047 10.7801V10.2483C6.82033 10.2232 6.35158 10.0574 5.96095 9.76647C5.78595 9.6382 5.7672 9.38165 5.92345 9.23148L6.43282 8.74655C6.55157 8.63079 6.7297 8.62766 6.87032 8.71526C7.03907 8.82164 7.22657 8.87482 7.42657 8.87482H8.6422C8.92345 8.87482 9.15157 8.61827 9.15157 8.30229C9.15157 8.04574 8.99532 7.81736 8.77345 7.75165L6.82657 7.16659C6.02344 6.9257 5.46094 6.15292 5.46094 5.2863C5.46407 4.22258 6.28594 3.3622 7.30781 3.33405L7.30784 3.33402ZM15 11.3047H13.9844C13.3719 12.1181 12.5906 12.797"
    fill="#840f06" />
</svg>